<?xml version="1.0" encoding="utf-8"?>
<!-- Generator: Adobe Illustrator 16.0.0, SVG Export Plug-In . SVG Version: 6.00 Build 0)  -->
<!DOCTYPE svg PUBLIC "-//W3C//DTD SVG 1.1//EN" "http://www.w3.org/Graphics/SVG/1.1/DTD/svg11.dtd">
<svg version="1.1" id="Capa_1" xmlns="http://www.w3.org/2000/svg" xmlns:xlink="http://www.w3.org/1999/xlink" x="0px" y="0px"
	 width="84.41px" height="84.41px" viewBox="0 0 84.41 84.41" enable-background="new 0 0 84.41 84.41" xml:space="preserve">
<g>
	<g>
		<path d="M56.455,25.784V0h-28.5v25.784c0,13.013,7.845,18.528,12.214,19.961v31.331c-3.32,0.193-5.768,0.854-5.768,1.636
			c0,0.069,0.024,0.136,0.06,0.2c-3.607,0.546-5.973,1.453-5.973,2.479c0,1.668,6.217,3.021,13.887,3.021
			c7.669,0,13.887-1.353,13.887-3.021c0-1.057-2.504-1.983-6.289-2.522c0.021-0.052,0.037-0.104,0.037-0.155
			c0-0.757-2.283-1.396-5.43-1.613V45.627C49.002,44.029,56.455,38.467,56.455,25.784z M30.669,25.784V2.713H53.74v23.071
			c0,14.139-10.098,17.644-11.535,17.644C40.768,43.428,30.669,39.923,30.669,25.784z"/>
		<path fill="#E9D5B0" d="M51.551,26.767v-9.974c0,0-4.936,2.545-9.262,0c-4.325-2.543-9.429,0-9.429,0v9.974
			c0,11.336,8.059,13.734,9.345,13.776C43.49,40.501,51.551,38.102,51.551,26.767z"/>
	</g>
</g>
</svg>
